<?xml version="1.0" encoding="UTF-8"?>
<svg width="512" height="512" viewBox="0 0 512 512" xmlns="http://www.w3.org/2000/svg">
	<defs>
		<linearGradient id="g" x1="0" y1="0" x2="1" y2="1">
			<stop offset="0%" stop-color="#0A84FF"/>
			<stop offset="100%" stop-color="#1552CC"/>
		</linearGradient>
	</defs>
	<rect x="0" y="0" width="512" height="512" rx="96" ry="96" fill="url(#g)"/>
	<g transform="translate(156,128)">
		<path d="M0,72 C0,32 32,0 72,0 L196,0 L196,52 L84,52 C66,52 52,66 52,84 C52,102 66,116 84,116 L168,116 L168,168 L84,168 C66,168 52,182 52,200 C52,218 66,232 84,232 L196,232 L196,284 L72,284 C32,284 0,252 0,212 C0,189 10,168 26,154 C10,140 0,119 0,96 Z" fill="#FFFFFF"/>
	</g>
</svg>
